<?xml version="1.0" encoding="utf-8"?>
<!-- Generator: Adobe Illustrator 22.0.0, SVG Export Plug-In . SVG Version: 6.00 Build 0)  -->
<svg version="1.1" id="Layer_1" xmlns="http://www.w3.org/2000/svg" xmlns:xlink="http://www.w3.org/1999/xlink" x="0px" y="0px"
	 viewBox="0 0 1366 768" style="enable-background:new 0 0 1366 768;" xml:space="preserve">
<style type="text/css">
	.st0{font-family:'ChalkboardSE-Regular';}
	.st1{font-size:31.8286px;}
	.st2{font-size:64.8855px;}
</style>
<g>
	<g>
		<path d="M275.7,64.1c-9.7,31.1-15.1,66.1,0.4,96.3c12,23.3,35.8,39.5,62.6,34.8c13.5-2.4,25.7-9.9,32.6-21.9
			c-0.9-0.4-1.8-0.8-2.7-1.2c-3.5,19.9,3.9,39.6,16.3,55c13.9,17.2,33.6,28.7,52.8,39c34.7,18.7,80.4,39.9,118.9,19.1
			c20.6-11.1,33.2-32.2,53.2-44.2c-0.7-0.2-1.4-0.4-2.1-0.5c9.7,13.3,14.2,29.2,20.4,44.2c5.4,12.9,12.6,26,25.6,32.5
			c18,9,38.3,1.7,55.2-6.4c19.1-9.1,38.2-18.9,56.2-30c19.4-11.9,37.6-25.7,52.4-43.1c-0.8-0.1-1.6-0.2-2.4-0.3
			c15.6,29.4,43.3,52.2,75.4,61.1c8.9,2.5,18.5,4,27.6,1.3c7.7-2.3,14.1-7.4,19.5-13.3c12.1-13.3,21-30.1,27-47
			c7.1-19.9,10-41.1,8.7-62.2c-0.9,0.4-1.7,0.7-2.6,1.1c26.4,26.1,59.6,53.1,99.3,47.5c36.7-5.1,56.8-40.2,71.6-70.4
			c10.5-21.4,19.2-43.7,26.2-66.5c0.2-0.7-0.3-1.7-1-1.8c-6.8-1.2-13.6-2.4-20.4-3.5c-1.5-0.3-2.5,1.3-1.5,2.5
			c13.9,16.3,39.4,10.4,52.8-3.4c20.3-20.9,12-54.7,2.3-78.4c-0.7-1.8-3.6-1-2.9,0.8c9.1,22,17.5,53.4,0.1,73.7
			c-11.9,14-36.8,21-50.2,5.2c-0.5,0.8-1,1.7-1.5,2.5c6.8,1.2,13.6,2.4,20.4,3.5c-0.3-0.6-0.7-1.2-1-1.8
			c-5.9,19.3-13,38.2-21.5,56.5c-7.3,15.9-15.3,32-25.7,46.1c-10.1,13.6-23.2,25.7-39.8,30.4c-18.7,5.3-39,1.4-56.2-7.1
			c-18.7-9.2-34.2-23.4-48.9-37.9c-0.9-0.9-2.6-0.3-2.6,1.1c2.2,34.7-7.5,69.7-27.7,98.1c-4.9,6.9-10.6,13.8-18,18.2
			c-8.9,5.3-19,5.3-28.8,3.1c-15.6-3.5-30.5-10.8-43.3-20.3c-14.5-10.8-26.3-24.6-34.8-40.5c-0.4-0.8-1.7-1-2.4-0.3
			c-25.5,29.9-60.4,48.7-95,66.1c-17.8,9-39.5,21.4-60.1,14.9c-15.5-4.9-23.7-19.2-29.6-33.3c-6.2-15-10.8-31.1-20.5-44.4
			c-0.5-0.6-1.3-1-2.1-0.5c-15.9,9.6-27,24.6-41.3,36.1c-16.4,13.3-36.4,17.9-57.2,15.3c-20.8-2.6-40.7-11-59.3-20.4
			c-18.5-9.4-37.6-19.4-53-33.5c-17.4-15.8-30.2-38.9-25.9-63c0.3-1.6-1.8-2.7-2.7-1.2c-12.2,21.3-41.7,26.6-62.6,15.7
			c-25-13-36.5-42-36.9-69c-0.2-18.3,3.9-36.3,9.3-53.6C279.1,63.1,276.2,62.3,275.7,64.1L275.7,64.1z"/>
	</g>
</g>
<g>
	<g>
		<path d="M463.1,64.1c-7.3,32-13.4,64.2-18.4,96.6c-0.1,0.9,0.4,1.9,1.4,1.9c40.6-1.9,81.2-3.8,121.8-5.6c1.1,0,2-1.3,1.3-2.3
			c-19.4-28.2-0.2-63.3,1-93.7c0-0.8-0.7-1.6-1.5-1.5c-43.8,2.9-92.4,0.1-127.5-29.4c-1.5-1.2-3.6,0.9-2.1,2.1
			c35.7,30.1,84.9,33.2,129.6,30.3c-0.5-0.5-1-1-1.5-1.5c-1.3,31-20.4,66.3-0.6,95.2c0.4-0.8,0.9-1.5,1.3-2.3
			c-40.6,1.9-81.2,3.8-121.8,5.6c0.5,0.6,1,1.3,1.4,1.9c5-32.4,11.1-64.6,18.4-96.6C466.4,63,463.5,62.2,463.1,64.1L463.1,64.1z"/>
	</g>
</g>
<g>
	<g>
		<path d="M659.1,123.2c-8.1,23.3-11.8,47.9-10.8,72.6c0.4-0.5,0.7-1,1.1-1.4c-1.7,0.6-3.8,2.1-1.7,3.8c1.5,1.2,5,0.7,6.7,0.7
			c11.7,0,23.4-0.9,35-1.8c28.4-2.1,56.9-4.3,85.1-8.4c2.9-0.4,7-0.5,9.6-1.9c2.3-1.2,1.9-3.3-0.7-3.8c-0.1,1-0.3,2-0.4,2.9
			c8,0.9,6.7-6,6.6-12c-0.2-10.6-0.4-21.3-0.6-31.9c-0.2-11-0.4-21.9-0.7-32.9c-0.1-5.3-0.2-10.6-0.3-16c-0.1-2.3,0.2-5.4-1.9-6.9
			c-2.2-1.6-5.8-0.3-8.2,0.2c-5.3,1.1-10.5,2.2-15.8,3.3c-10.4,2.1-20.8,4.1-31.3,5.1c-10.7,1-21.5,1-32.1-0.9
			c-9.5-1.7-18.6-5.4-28.1-6.8c-7-1-16.3-1.8-18.3,6.6c-2.7,11-2.4,23.4-1.7,34.6c0.1,1.9,3.1,1.9,3,0c-0.6-8.3-0.5-16.7,0.4-25
			c0.5-4.9,0.3-12,6-13.4c4.2-1,9.2-0.1,13.3,0.7c7.7,1.5,15.1,4.3,22.8,5.8c7.4,1.5,15,2.1,22.6,2c15.9-0.2,31.5-3.2,47-6.4
			c4-0.8,8-1.7,12-2.5c2.8-0.6,6.2-0.2,7.2,2.6c0.8,2,0.1,5.9,0.2,8c0.2,8.6,0.3,17.3,0.5,25.9c0.2,9.6,0.4,19.3,0.6,28.9
			c0.1,4.7,0.2,9.3,0.3,14c0.1,3.4,2.2,14.6-3.5,14c-1.7-0.2-2.1,2.7-0.4,2.9c1.7,0.3,0.8-2,0.7-2c-0.3-0.1-2.1,0.6-2.5,0.7
			c-3.2,0.7-6.5,1.1-9.7,1.6c-11,1.5-22,2.7-33,3.7c-24.6,2.4-49.2,4.7-73.9,5.7c-4,0.2-7.9,0.4-11.9,0.2c-0.5,0-2.5-0.4-2.9-0.2
			c-0.6,0.4-0.6,2.2,0.8,1.7c0.6-0.2,1.1-0.8,1.1-1.4c-1-24.4,2.6-48.7,10.7-71.8C662.7,122.2,659.8,121.4,659.1,123.2L659.1,123.2z
			"/>
	</g>
</g>
<g>
	<g>
		<path d="M884.4,42.9c-4.4,21.9-8.9,43.7-13.3,65.6c-2.2,11.1-4.5,22.2-6.7,33.3c-0.4,2-2.1,6.1-0.6,8.2c1.8,2.5,7,1.3,9.4,1.3
			c21.8-0.1,43.8,0.6,65.6-0.4c7.5-0.3,8.1-4.8,8.3-11.4c0.3-11.2,0.5-22.3,0.6-33.5c0-25-0.8-49.9-2.3-74.9c-0.1-1.3-1.6-2-2.6-1.1
			c-4.2,4-9.6,5.4-15.2,6.2c-7,1.1-14.1,1.6-21.2,2.2c-13.5,1-27,1.3-40.5,0.9c-1.9,0-1.9,3,0,3c15.5,0.4,31,0,46.4-1.4
			c10.8-1,24.3-0.8,32.6-8.8c-0.9-0.4-1.7-0.7-2.6-1.1c1.2,19,2,38.1,2.2,57.1c0.1,9.5,0.1,19.1,0,28.6c-0.1,4.6-0.1,9.2-0.2,13.8
			c-0.1,4.2,1.3,14.4-2.9,17c-1.4,0.9-4.5,0.3-6.1,0.3c-2.3,0-4.6,0-6.9,0c-4.9,0-9.8,0.1-14.8,0.1c-9.5,0.1-19,0.1-28.6,0.2
			c-4.6,0-9.2,0.1-13.8,0.1c-0.7,0-3.6,0.3-3.9,0c-0.7-0.6-0.4-3-0.4-3.8c0.2-2.6,1.1-5.3,1.6-7.8c1.9-9.5,3.8-18.9,5.8-28.4
			c4.4-21.5,8.7-43.1,13.1-64.6C887.7,41.8,884.8,41,884.4,42.9L884.4,42.9z"/>
	</g>
</g>
<text transform="matrix(1 0 0 1 613.251 56.8447)" class="st0 st1">Hapi Endpoints</text>
<g>
	<text transform="matrix(1 0 0 1 267.75 41.5)"><tspan x="0" y="0" class="st0 st1">Beamery</tspan><tspan x="0" y="38.2" class="st0 st1">   Cloud</tspan></text>
</g>
<g>
	<g>
		<path d="M639.1,600.8c0.5,18.8-0.4,37.6-2.7,56.2c-0.4,3.5-3.5,12,2.3,12.7c4,0.5,8.9-1.3,13-1.8c4.8-0.5,9.6-0.8,14.4-0.9
			c19.3-0.4,38.5,1.9,57.5,4.6c4.5,0.6,9,1.3,13.5,1.9c3.1,0.4,7.1,1.8,10.3,1c5.5-1.3,4-8,3.5-12c-2.5-21.4-5.1-42.8-7.6-64.3
			c-0.1-0.8-0.6-1.5-1.5-1.5c-33.4,0.4-66.7-1.1-99.9-4.6c-1.9-0.2-1.9,2.8,0,3c33.2,3.5,66.5,5,99.9,4.6c-0.5-0.5-1-1-1.5-1.5
			c2.4,20.8,4.9,41.5,7.3,62.3c0.2,2.1,1.1,4.9,0.8,7c-0.7,4.9-4.1,3.9-7.7,3.4c-5.1-0.7-10.3-1.5-15.4-2.2
			c-9.8-1.4-19.6-2.7-29.4-3.6c-10.3-1-20.6-1.5-30.9-1.2c-5.1,0.1-10.3,0.5-15.4,1.1c-2,0.2-4.1,0.6-6.1,0.8
			c-1.8,0.5-3.6,0.4-5.4-0.2c0.2-1.5,0.4-3,0.6-4.5c2.7-20.1,3.8-40.2,3.2-60.5C642.1,598.8,639.1,598.8,639.1,600.8L639.1,600.8z"
			/>
	</g>
</g>
<g>
	<g>
		<path d="M630.3,679.3c-15.5,8.2-27.3,21.7-34.6,37.6c-0.4,1,0.1,2.3,1.3,2.3c61.6-2.2,123.3-4.3,184.9-6.5c1.2,0,2.1-1.6,1.1-2.6
			c-5.3-4.9-10.7-9.8-16-14.7c-4.5-4.2-8.9-9.2-14-12.7c-4.1-2.9-8.6-1.6-13.2-0.9c-7.7,1.1-15.5,1.8-23.2,2.3
			c-28.7,1.7-57.5-1-85.4-7.6C629.3,675.9,628.5,678.8,630.3,679.3c25.8,6,52.3,8.9,78.7,8c6.6-0.2,13.3-0.7,19.9-1.3
			c3.2-0.3,6.3-0.7,9.4-1.1c3.3-0.4,7.1-1.6,10.4-0.8c3.6,0.9,6.3,4.2,8.9,6.7c2.4,2.2,4.8,4.5,7.3,6.7c5.3,4.9,10.7,9.8,16,14.7
			c0.4-0.9,0.7-1.7,1.1-2.6c-61.6,2.2-123.3,4.3-184.9,6.5c0.4,0.8,0.9,1.5,1.3,2.3c7.1-15.4,18.4-28.5,33.5-36.5
			C633.6,681,632.1,678.4,630.3,679.3L630.3,679.3z"/>
	</g>
</g>
<g>
	<g>
		<path d="M663,609.9c-3.1,0.8-5.3,3.8-5.3,7.1c0,3.4,2.7,5.9,5.9,6.4c3.2,0.4,6.3-1.2,7.3-4.3c1-3.2-0.3-6.8-3.1-8.5
			c-1.7-1-3.2,1.6-1.5,2.6c3.6,2.1,2,7.9-2.4,7.3c-4.3-0.6-4.2-6.6-0.2-7.6C665.6,612.3,664.9,609.4,663,609.9L663,609.9z"/>
	</g>
</g>
<g>
	<g>
		<path d="M720.1,613.6c-3.6,0.9-6.4,4-6.9,7.7c-0.5,3.7,1.6,7.5,5.7,7.1c3.9-0.3,6.5-4.5,7.4-8c0.4-1.8,0.2-3.8-1.3-5
			c-1.2-0.9-2.7-1.1-4-0.2c-1.6,1-0.1,3.6,1.5,2.6c1.8-1.2,0.5,3.2,0.3,3.6c-0.3,0.6-0.6,1.3-1,1.8c-1,1.5-3.8,3.5-5.2,1.1
			c-1.9-3.2,1.3-7.2,4.4-7.9C722.8,616.1,722,613.2,720.1,613.6L720.1,613.6z"/>
	</g>
</g>
<g>
	<g>
		<path d="M665.1,644c11,4.1,22.6,6.6,34.3,7c7.7,0.3,16.6,0,21.2-7.1c1-1.6-1.5-3.1-2.6-1.5c-4.8,7.4-16.6,5.9-24.1,5.3
			c-9.6-0.9-19-3.2-28-6.6C664.1,640.4,663.4,643.3,665.1,644L665.1,644z"/>
	</g>
</g>
<g>
	<g>
		<path d="M662.4,459.9c-2.4-7.3-4.7-14.7-5.3-22.4c-0.5-6,0-12.1,0.4-18.1c1-15.4,1.8-30.8,1.5-46.2c-0.5-24-6.3-47.7-10.1-71.4
			c-0.3-1.9-3.2-1.1-2.9,0.8c3.9,24.2,9.7,48.2,10,72.8c0.2,15.6-0.7,31.2-1.7,46.8c-0.8,13.6,0.8,25.4,5.2,38.4
			C660.1,462.5,663,461.7,662.4,459.9L662.4,459.9z"/>
	</g>
</g>
<g>
	<g>
		<path d="M630.6,327.3c4.1-10.1,10-19.1,17.5-27c-0.7,0-1.4,0-2.1,0c1.8,2.3,2.3,5.8,3.6,8.5c1.2,2.4,2.7,4.7,4.3,6.8
			c3.7,4.8,8.1,8.8,12.5,12.9c1.4,1.3,3.6-0.8,2.1-2.1c-4.8-4.4-9.8-8.9-13.5-14.4c-3-4.3-3.7-9.8-6.9-13.9c-0.5-0.6-1.6-0.5-2.1,0
			c-7.9,8.3-14,17.7-18.3,28.3C627,328.3,629.9,329,630.6,327.3L630.6,327.3z"/>
	</g>
</g>
<g>
	<g>
		<path d="M727.5,303c-6.4,31.9-6.6,63.7-3.4,96c1.4,14.1,3.6,28.7,2.5,42.9c-0.4,5.5-0.6,2.4-4.6,2.7c-6.9,0.5-8.6,13.4-9.7,18.2
			c-0.4,1.9,2.5,2.7,2.9,0.8c0.9-4,2.3-16.9,8.5-15.6c2.9,0.6,4.6,0.7,5.4-2.7c0.9-3.5,0.6-7.5,0.5-11c-0.2-8.1-0.8-16.3-1.5-24.4
			c-1.5-16.2-3.4-32.4-3.5-48.7c-0.1-19.2,1.9-38.4,5.7-57.2C730.7,301.9,727.8,301.1,727.5,303L727.5,303z"/>
	</g>
</g>
<g>
	<g>
		<path d="M699.8,442.8c3.4,6.2,6.8,12.3,10.5,18.3c1.7,2.8,4.4,10.2,8.3,10.6c3.7,0.3,6.8-6.2,8.4-8.5c3.9-5.6,7.5-11.5,10.9-17.4
			c0.9-1.7-1.6-3.2-2.6-1.5c-2.4,4.4-5,8.6-7.7,12.8c-1.4,2.1-2.8,4.1-4.2,6.2c-1.4,2-3.4,5.5-5.9,3.7c-1.4-1-2.6-4.2-3.6-5.7
			c-1.3-2.2-2.7-4.4-3.9-6.6c-2.6-4.4-5.1-8.9-7.5-13.4C701.5,439.5,698.9,441.1,699.8,442.8L699.8,442.8z"/>
	</g>
</g>
<text transform="matrix(1 0 0 1 302 432)"><tspan x="0" y="0" class="st0 st1">Asynchronous</tspan><tspan x="0" y="38.2" class="st0 st1">JavaScript</tspan><tspan x="0" y="76.4" class="st0 st1">And</tspan><tspan x="0" y="114.6" class="st0 st1">XML</tspan></text>
<text transform="matrix(1 0 0 1 302.749 390.7549)" class="st0 st2">AJAX</text>
<text transform="matrix(1 0 0 1 660.75 280.75)" class="st0 st1">API</text>
<g>
	<g>
		<path d="M652.8,271.4c-15.9-49.5-50.2-92-95.2-118c-1.7-1-3.2,1.6-1.5,2.6c44.3,25.6,78.2,67.5,93.8,116.2
			C650.5,274,653.4,273.3,652.8,271.4L652.8,271.4z"/>
	</g>
</g>
<g>
	<g>
		<path d="M554.4,175.7c0.2-4.4,0.8-8.7,2.1-12.9c1.1-3.4,2.5-8.7,5.2-11.2c2.3-2.1,7.8,2.2,10.4,3.5c4,2.1,8,4.1,12,6.2
			c1.7,0.9,3.2-1.7,1.5-2.6c-5.7-3-11.5-5.9-17.2-8.9c-2.5-1.3-5.5-3.7-8.1-1.5c-2.9,2.4-4.6,7.8-5.9,11.2
			c-1.9,5.2-2.8,10.6-3.1,16.2C551.3,177.7,554.3,177.7,554.4,175.7L554.4,175.7z"/>
	</g>
</g>
<g>
	<g>
		<path d="M733.9,285c2.6-16.7,5.5-34.9,16.6-48.3c11.9-14.3,32.2-20.6,48.6-28c18.9-8.6,37.8-17.1,56.7-25.7
			c13.8-6.3,28.5-13,36.1-26.9c0.9-1.7-1.7-3.2-2.6-1.5c-6.5,11.9-18.7,18.3-30.5,23.7c-14.7,6.8-29.4,13.3-44.1,20
			c-14.8,6.7-29.8,13.1-44.3,20.2c-11.5,5.7-21.5,13.1-27.8,24.4c-7,12.6-9.4,27.2-11.6,41.2C730.7,286.1,733.6,286.9,733.9,285
			L733.9,285z"/>
	</g>
</g>
<g>
	<g>
		<path d="M871.8,164c6.2-3,12.8-5,19.6-5.5c0.8-0.1,2.9-0.5,3.5-0.2c2.1,1.1,1,3.6,0.6,5.4c-0.7,3.5-2,6.9-3.5,10.2
			c-0.8,1.7,1.8,3.3,2.6,1.5c1.8-3.8,8.4-17.5,2.2-19.8c-3.3-1.2-8.6,0.2-12,0.9c-5.1,1-9.9,2.8-14.6,5
			C868.6,162.2,870.1,164.8,871.8,164L871.8,164z"/>
	</g>
</g>
<g>
	<g>
		<path d="M721.5,276.2c1,3.9,4,12.1,8.8,12.8c2.3,0.3,4-1.6,5.4-3.1c2.8-2.7,5.5-5.5,8.2-8.3c1.4-1.4-0.8-3.5-2.1-2.1
			c-2.7,2.7-5.5,6.8-8.7,8.8c-3.1,2-4.5,0-6.1-2.6c-1.2-2-2-4.1-2.6-6.4C723.9,273.6,721,274.4,721.5,276.2L721.5,276.2z"/>
	</g>
</g>
<g>
	<g>
		<path d="M639.2,270.5c5.6,0.9,10.8,2.8,15.6,5.8c1,0.6,2.2-0.2,2.3-1.3c0.1-6.4,0.2-12.8,0.3-19.2c0-1.9-3-1.9-3,0
			c-0.1,6.4-0.2,12.8-0.3,19.2c0.8-0.4,1.5-0.9,2.3-1.3c-5-3.1-10.5-5.2-16.3-6.1C638.1,267.3,637.3,270.2,639.2,270.5L639.2,270.5z
			"/>
	</g>
</g>
<g>
	<g>
		<path d="M570.8,467.7c36.6-4.6,73.3-0.1,109.8,3.5c18.5,1.8,37,3.5,55.6,3.5c18.3,0,36.5-1.8,54.7-3.4c21.5-1.8,43.1-3,64.5,0.5
			c-0.3-0.7-0.6-1.5-0.9-2.2c-8.8,19.6-15.5,39.9-20,60.9c0.5-0.4,1-0.7,1.4-1.1c-17.5,0.2-34.5-3.7-51.7-6.4
			c-16.9-2.7-33.5-2.9-50.5-1.1c-35.1,3.8-70,8.8-105.3,11.3c-20.1,1.4-40.2,2.4-60.3,3c0.5,0.5,1,1,1.5,1.5
			c2-24.2,5.9-48.1,11.5-71.7c0.4-1.9-2.4-2.7-2.9-0.8c-5.7,23.8-9.5,48.1-11.6,72.5c-0.1,0.8,0.7,1.5,1.5,1.5
			c35.6-1,71.2-3.4,106.6-7.1c35.1-3.7,70.5-11.9,105.8-6.7c18.4,2.7,36.6,7.1,55.3,6.9c0.6,0,1.3-0.5,1.4-1.1
			c4.5-20.7,11.1-40.8,19.7-60.2c0.4-0.8,0.2-2-0.9-2.2c-36.8-6-73.6,1.6-110.5,2.7c-37.5,1.1-74.7-5.2-112-7.8
			c-21-1.5-42-1.8-62.9,0.9C569,464.9,568.9,467.9,570.8,467.7L570.8,467.7z"/>
	</g>
</g>
<text transform="matrix(1 0 0 1 653.25 507.75)" class="st0 st1">$http</text>
<text transform="matrix(1 0 0 1 803.084 640.5771)" class="st0 st1">Angular</text>
<g>
	<g>
		<path d="M657.9,595.6c-1.4-20.4-0.8-40.9,2-61.2c0.3-1.9-2.6-2.7-2.9-0.8c-2.8,20.6-3.6,41.3-2.1,62
			C655,597.5,658,597.5,657.9,595.6L657.9,595.6z"/>
	</g>
</g>
<g>
	<g>
		<path d="M642,558.4c0.9-4.4,2.1-8.6,4-12.7c1.5-3.2,4-9.3,6.9-11.3c3.3-2.4,8.3,3.1,11.1,5.1c3.6,2.6,7.2,5.3,10.8,7.9
			c1.6,1.1,3.1-1.5,1.5-2.6c-5.1-3.8-10.3-7.5-15.4-11.3c-2.5-1.8-5.3-4.7-8.5-2.8c-3.5,2.1-6.1,7.7-7.9,11.2
			c-2.5,5-4.3,10.2-5.4,15.7C638.8,559.5,641.7,560.3,642,558.4L642,558.4z"/>
	</g>
</g>
<g>
	<g>
		<path d="M726.6,526.6c0,22,0,44,0,66c0,1.9,3,1.9,3,0c0-22,0-44,0-66C729.6,524.7,726.6,524.6,726.6,526.6L726.6,526.6z"/>
	</g>
</g>
<g>
	<g>
		<path d="M709.2,584.5c6.6,6.3,13.8,11.9,21.5,16.7c0.5,0.3,1.4,0.3,1.8-0.2c5.8-7,10.7-14.5,14.5-22.7c0.8-1.7-1.8-3.3-2.6-1.5
			c-3.7,8-8.4,15.4-14.1,22.1c0.6-0.1,1.2-0.2,1.8-0.2c-7.5-4.7-14.5-10.1-20.9-16.2C709.9,581,707.8,583.1,709.2,584.5L709.2,584.5
			z"/>
	</g>
</g>
<text transform="matrix(1 0 0 1 594.5977 392.0908)" class="st0 st1">URL</text>
<text transform="matrix(1 0 0 1 746.0869 373.5908)" class="st0 st1">JSON / Text</text>
</svg>
